<svg xmlns="http://www.w3.org/2000/svg" width="800" height="800" fill="none" viewBox="0 0 24 24"><path fill="#000" fill-rule="evenodd" d="M12 21C16.4183 19 20 15.4183 20 11C20 6.58172 16.4183 3 12 3C7.58172 3 4 6.58172 4 11C4 15.4183 7.58172 19 12 21ZM12 14C13.6569 14 15 12.6569 15 11C15 9.34315 13.6569 8 12 8C10.3431 8 9 9.34315 9 11C9 12.6569 10.3431 14 12 14Z" clip-rule="evenodd" opacity=".15"/><path stroke="#000" stroke-linecap="round" stroke-linejoin="round" stroke-width="1.5" d="M12 14C13.6569 14 15 12.6569 15 11C15 9.34315 13.6569 8 12 8C10.3431 8 9 9.34315 9 11C9 12.6569 10.3431 14 12 14Z"/><path stroke="#000" stroke-linecap="round" stroke-linejoin="round" stroke-width="1.5" d="M12 21C16.4183 19 20 15.4183 20 11C20 6.58172 16.4183 3 12 3C7.58172 3 4 6.58172 4 11C4 15.4183 7.58172 19 12 21Z"/></svg>