<svg width="64" height="64" viewBox="0 0 64 64" fill="none" xmlns="http://www.w3.org/2000/svg">
<path d="M32 4C26.1673 4.00662 20.5753 6.32659 16.451 10.451C12.3266 14.5753 10.0066 20.1673 10 26C10 44.825 30 59.0425 30.8525 59.6375C31.1888 59.8731 31.5894 59.9994 32 59.9994C32.4106 59.9994 32.8112 59.8731 33.1475 59.6375C34 59.0425 54 44.825 54 26C53.9934 20.1673 51.6734 14.5753 47.549 10.451C43.4247 6.32659 37.8327 4.00662 32 4ZM32 18C33.5823 18 35.129 18.4692 36.4446 19.3482C37.7602 20.2273 38.7855 21.4767 39.391 22.9385C39.9965 24.4003 40.155 26.0089 39.8463 27.5607C39.5376 29.1126 38.7757 30.538 37.6569 31.6569C36.538 32.7757 35.1126 33.5376 33.5607 33.8463C32.0089 34.155 30.4003 33.9965 28.9385 33.391C27.4767 32.7855 26.2273 31.7602 25.3482 30.4446C24.4692 29.129 24 27.5823 24 26C24 23.8783 24.8429 21.8434 26.3431 20.3431C27.8434 18.8429 29.8783 18 32 18Z" fill="#1A1A1A"/>
</svg>
